<?xml version="1.0" encoding="utf-8"?>
<svg version="1.1" xmlns="http://www.w3.org/2000/svg" xmlns:xlink="http://www.w3.org/1999/xlink" x="0px" y="0px" viewBox="0 0 1000 1000" enable-background="new 0 0 1000 1000" xml:space="preserve">
<g><path d="M775.6,671.5V469v-92c0-144.5-111-262.9-252.2-274.8l-45.9,0C335.8,113.7,224.4,232.3,224.4,377v92v202.5l-91.9,92v78.6h735v-78.6L775.6,671.5z"/><path d="M502.2,990c64,0,118.3-37.8,144-92h-288C383.9,952.2,438.2,990,502.2,990z"/><path d="M570.1,71.5V10H432.2v61c21.9-4.7,44.5-7.3,67.8-7.3C524.1,63.7,547.5,66.5,570.1,71.5z"/></g>
</svg>
