<svg xmlns="http://www.w3.org/2000/svg" viewBox="0, 0, 32, 32">
  <path d="M8.227,23 C7.924,23.001 7.637,22.865 7.447,22.63 L2.617,16.63 C2.313,16.261 2.313,15.729 2.617,15.36 L7.617,9.36 C7.97,8.935 8.601,8.877 9.027,9.23 C9.452,9.583 9.51,10.215 9.157,10.64 L4.687,16 L9.007,21.36 C9.256,21.66 9.309,22.077 9.141,22.43 C8.974,22.782 8.617,23.005 8.227,23 z" fill="#000000"/>
  <path d="M14.541,22.277 L14.541,10.723 C14.541,9.811 15.307,9.072 16.253,9.072 L25.818,9.072 C26.272,9.072 26.707,9.246 27.028,9.556 L29.45,11.89 C29.771,12.199 29.951,12.619 29.951,13.057 L29.951,22.277 C29.951,23.189 29.185,23.928 28.239,23.928 L16.253,23.928 C15.307,23.928 14.541,23.189 14.541,22.277 z" fill-opacity="0" stroke="#000000" stroke-width="1.5"/>
  <path d="M19.335,14.024 L25.157,14.024 C25.44,14.024 25.671,13.802 25.671,13.529 L25.671,9.567 C25.671,9.294 25.44,9.072 25.157,9.072 L19.335,9.072 C19.052,9.072 18.821,9.294 18.821,9.567 L18.821,13.529 C18.821,13.802 19.052,14.024 19.335,14.024 z" fill-opacity="0" stroke="#000000" stroke-width="1.5"/>
  <path d="M17.109,17.821 L17.109,23.928 L27.383,23.928 L27.383,17.821 C27.383,17.547 27.153,17.325 26.869,17.325 L17.623,17.325 C17.339,17.325 17.109,17.547 17.109,17.821 z" fill-opacity="0" stroke="#000000" stroke-width="1.5"/>
</svg>
