<svg xmlns="http://www.w3.org/2000/svg" viewBox="0, 0, 32, 32">
  <path d="M8.227,23 C7.924,23.001 7.637,22.865 7.447,22.63 L2.617,16.63 C2.313,16.261 2.313,15.729 2.617,15.36 L7.617,9.36 C7.97,8.935 8.601,8.877 9.027,9.23 C9.452,9.583 9.51,10.215 9.157,10.64 L4.687,16 L9.007,21.36 C9.256,21.66 9.309,22.077 9.141,22.43 C8.974,22.782 8.617,23.005 8.227,23 z"/>
  <path d="M12.774,17.131 Q12.805,17.68 13.033,18.023 Q13.468,18.665 14.567,18.665 Q15.059,18.665 15.464,18.524 Q16.246,18.252 16.246,17.549 Q16.246,17.021 15.916,16.797 Q15.582,16.577 14.87,16.415 L13.996,16.217 Q13.139,16.024 12.783,15.791 Q12.168,15.387 12.168,14.582 Q12.168,13.712 12.77,13.154 Q13.372,12.596 14.475,12.596 Q15.49,12.596 16.2,13.086 Q16.909,13.576 16.909,14.653 L16.088,14.653 Q16.022,14.134 15.806,13.857 Q15.406,13.352 14.448,13.352 Q13.675,13.352 13.337,13.677 Q12.998,14.002 12.998,14.433 Q12.998,14.908 13.394,15.127 Q13.653,15.268 14.567,15.479 L15.472,15.685 Q16.127,15.835 16.483,16.094 Q17.098,16.547 17.098,17.408 Q17.098,18.48 16.318,18.942 Q15.538,19.403 14.506,19.403 Q13.301,19.403 12.62,18.788 Q11.939,18.177 11.952,17.131 z"/>
  <path d="M18.707,17.962 Q18.707,18.304 18.957,18.502 Q19.208,18.7 19.55,18.7 Q19.968,18.7 20.359,18.507 Q21.018,18.186 21.018,17.456 L21.018,16.819 Q20.873,16.911 20.645,16.973 Q20.416,17.034 20.196,17.061 L19.717,17.122 Q19.287,17.179 19.071,17.303 Q18.707,17.509 18.707,17.962 z M20.623,16.362 Q20.895,16.327 20.987,16.134 Q21.04,16.028 21.04,15.83 Q21.04,15.426 20.752,15.244 Q20.465,15.061 19.928,15.061 Q19.309,15.061 19.049,15.395 Q18.904,15.58 18.861,15.945 L18.122,15.945 Q18.144,15.074 18.687,14.734 Q19.23,14.393 19.946,14.393 Q20.777,14.393 21.295,14.71 Q21.809,15.026 21.809,15.694 L21.809,18.406 Q21.809,18.529 21.86,18.603 Q21.91,18.678 22.073,18.678 Q22.126,18.678 22.192,18.671 Q22.257,18.665 22.332,18.652 L22.332,19.236 Q22.148,19.289 22.051,19.302 Q21.954,19.315 21.787,19.315 Q21.379,19.315 21.194,19.025 Q21.097,18.871 21.058,18.59 Q20.816,18.907 20.363,19.139 Q19.911,19.372 19.366,19.372 Q18.711,19.372 18.296,18.975 Q17.881,18.577 17.881,17.979 Q17.881,17.324 18.289,16.964 Q18.698,16.604 19.361,16.52 z"/>
  <path d="M23.492,14.508 L24.749,18.34 L26.063,14.508 L26.929,14.508 L25.153,19.214 L24.31,19.214 L22.574,14.508 z"/>
  <path d="M29.566,14.402 Q30.067,14.402 30.537,14.637 Q31.007,14.872 31.253,15.246 Q31.49,15.602 31.569,16.076 Q31.64,16.402 31.64,17.114 L28.19,17.114 Q28.212,17.83 28.528,18.263 Q28.845,18.696 29.508,18.696 Q30.128,18.696 30.497,18.287 Q30.708,18.05 30.796,17.738 L31.574,17.738 Q31.543,17.997 31.37,18.315 Q31.196,18.634 30.981,18.836 Q30.62,19.188 30.089,19.311 Q29.803,19.381 29.443,19.381 Q28.564,19.381 27.953,18.742 Q27.342,18.102 27.342,16.951 Q27.342,15.817 27.957,15.11 Q28.572,14.402 29.566,14.402 z M30.827,16.485 Q30.778,15.971 30.603,15.663 Q30.278,15.092 29.517,15.092 Q28.972,15.092 28.603,15.485 Q28.234,15.879 28.212,16.485 z"/>
</svg>
