<?xml version="1.0" standalone="no"?>
<svg version="1.0" xmlns="http://www.w3.org/2000/svg" viewBox="0 0 516 516">
<g transform="translate(0,516) scale(0.1,-0.1)"
fill="#000000" stroke="none">
<path d="M1607 5135 c-116 -19 -252 -55 -374 -101 -284 -106 -577 -310 -762
-531 -147 -176 -185 -255 -162 -340 26 -97 102 -156 200 -156 89 0 125 25 241
167 235 290 539 471 899 535 109 20 151 21 931 21 771 0 823 -1 927 -20 534
-96 967 -470 1137 -982 73 -220 70 -161 73 -1101 4 -824 3 -852 -17 -965 -84
-468 -372 -858 -787 -1066 -125 -63 -276 -112 -418 -136 -110 -19 -161 -20
-918 -20 -750 0 -809 1 -917 20 -365 62 -703 264 -923 552 -118 155 -212 350
-265 552 l-26 101 -6 810 c-7 899 -3 857 -75 931 -85 88 -220 84 -302 -9 -18
-20 -37 -55 -43 -77 -8 -28 -10 -287 -7 -848 4 -886 2 -852 68 -1082 184 -638
668 -1121 1309 -1305 227 -65 246 -66 1242 -62 883 3 894 3 993 26 475 106
869 356 1143 726 195 263 326 581 361 880 15 124 15 1752 0 1866 -34 266 -146
557 -303 794 -277 415 -685 690 -1199 808 -90 20 -115 21 -1012 23 -747 2
-937 0 -1008 -11z"/>
<path d="M1762 3519 c-45 -13 -105 -76 -120 -125 -34 -114 -6 -167 185 -356
128 -125 155 -147 201 -163 66 -21 124 -14 181 23 48 31 91 107 91 161 0 86
-15 108 -179 275 -95 97 -171 166 -196 177 -43 20 -110 23 -163 8z"/>
<path d="M3225 3510 c-26 -13 -308 -288 -806 -787 -844 -846 -809 -805 -796
-916 16 -133 158 -215 283 -162 27 11 133 110 345 321 185 184 313 304 324
304 11 0 138 -118 319 -299 193 -192 316 -307 344 -320 79 -40 180 -23 239 41
26 28 62 105 63 134 0 11 -7 43 -16 70 -15 43 -53 86 -320 355 -167 168 -305
312 -305 320 -1 8 -1 21 0 29 2 8 135 148 296 310 196 196 299 307 310 332 31
76 10 183 -46 235 -59 54 -162 69 -234 33z"/>
</g>
</svg>
