<?xml version="1.0" standalone="no"?>
<svg version="1.0" xmlns="http://www.w3.org/2000/svg" viewBox="0 0 256 256">

<g transform="translate(0,256) scale(0.1,-0.1)" fill="#000000" stroke="none">
<path d="M785 2516 c-89 -42 -134 -117 -135 -223 l0 -63 -114 0 c-204 0 -275
-28 -328 -129 -27 -50 -28 -60 -28 -185 0 -113 3 -135 20 -164 23 -37 75 -72
107 -72 l22 0 3 -707 c3 -655 5 -712 21 -755 25 -63 83 -127 148 -163 l54 -30
725 0 725 0 54 30 c65 36 123 100 148 163 16 43 18 100 21 755 l3 707 22 0
c32 0 84 35 107 72 17 29 20 51 20 164 0 125 -1 135 -28 185 -53 101 -124 129
-328 129 l-114 0 0 63 c0 44 -7 76 -24 112 -28 60 -56 87 -116 114 -43 20 -64
21 -490 21 l-445 0 -50 -24z m914 -137 c40 -14 51 -35 51 -98 l0 -51 -470 0
-470 0 0 49 c0 113 -11 110 466 111 261 0 402 -4 423 -11z m498 -333 c27 -23
28 -28 28 -118 l0 -93 -945 0 -945 0 0 93 c0 90 1 95 28 118 l28 24 889 0 889
0 28 -24z m-129 -1046 c2 -437 -1 -687 -7 -710 -15 -51 -70 -101 -123 -111
-56 -11 -1260 -11 -1316 0 -49 10 -98 50 -118 98 -11 26 -14 157 -14 711 0
373 3 682 7 685 3 4 358 6 787 5 l781 -3 3 -675z"/>
<path d="M694 1506 c-17 -7 -34 -21 -38 -31 -3 -9 -6 -259 -6 -556 0 -523 1
-540 20 -559 27 -27 56 -33 159 -29 145 6 131 -56 131 594 0 652 15 588 -139
593 -66 1 -106 -2 -127 -12z m191 -581 l0 -510 -77 -3 -78 -3 0 516 0 516 78
-3 77 -3 0 -510z"/>
<path d="M1174 1511 c-55 -24 -54 -11 -54 -588 l0 -532 24 -28 c24 -28 26 -28
136 -28 110 0 112 0 136 28 l24 28 0 534 0 534 -24 28 c-23 27 -29 28 -123 30
-54 2 -108 -1 -119 -6z m186 -586 l0 -515 -80 0 -80 0 0 515 0 515 80 0 80 0
0 -515z"/>
<path d="M1650 1513 c-8 -3 -23 -12 -32 -21 -17 -14 -18 -54 -18 -567 0 -650
-14 -588 131 -594 103 -4 132 2 159 29 19 19 20 35 20 563 -1 584 1 566 -54
587 -28 10 -179 13 -206 3z m180 -588 l0 -516 -77 3 -78 3 -3 500 c-1 275 0
506 3 513 3 8 29 12 80 12 l75 0 0 -515z"/>
</g>
</svg>
