<svg
  version="1.1" xmlns="http://www.w3.org/2000/svg"
  xmlns:xlink="http://www.w3.org/1999/xlink"
  viewBox="0, 0, 18, 18"
>
  <path d="M13.471,-0 C13.605,-0.007 13.743,0.037 13.854,0.147 L16.853,3.146 C16.964,3.258 17.008,3.396 17,3.529 L16.999,11.5 C17,12.882 15.881,14.001 14.5,14.001 L12.999,14 L12.999,15.499 C13,16.881 11.881,18 10.5,18 L3.499,17.999 C2.119,18 1,16.881 1,15.5 L0.999,6.499 C1,5.119 2.119,4 3.5,4 L4.999,3.999 L4.999,2.5 C5,1.12 6.119,0.001 7.5,0.001 L13.471,-0 z M12.999,1 L7.499,1 C6.672,1.001 6,1.673 6,2.501 L5.999,7.499 C6,7.776 5.776,8 5.5,8 C5.224,8 5,7.776 5,7.5 L4.999,4.999 L3.499,4.999 C2.672,5 2,5.672 2,6.5 L1.999,15.499 C2,16.328 2.672,17 3.5,17 L10.499,16.999 C11.328,17 12,16.328 12,15.5 L11.999,14 L9.499,14 C9.224,14.001 9,13.777 9,13.501 C9,13.225 9.224,13.001 9.5,13.001 L14.499,13 C15.328,13.001 16,12.329 16,11.501 L15.999,4 L13.499,4 C13.224,4.001 13,3.777 13,3.501 L12.999,1 z M13.999,1.707 L13.999,3 L15.292,3 L13.999,1.707 z" fill="#000000"/>
  <path d="M8.938,6.594 L8.938,11.656" fill-opacity="0" stroke="#000000" stroke-width="1.25" stroke-linecap="round"/>
  <path d="M11.5,9.094 L6.5,9.094" fill-opacity="0" stroke="#000000" stroke-width="1.25" stroke-linecap="round"/>
</svg>
