<?xml version="1.0" encoding="utf-8"?>
<svg version="1.1" xmlns="http://www.w3.org/2000/svg" xmlns:xlink="http://www.w3.org/1999/xlink" x="0px" y="0px" viewBox="0 0 1000 1000" enable-background="new 0 0 1000 1000" xml:space="preserve">
<g><path d="M500,10C229.4,10,10,229.4,10,500c0,270.6,219.4,490,490,490c270.7,0,490-219.4,490-490C990,229.4,770.6,10,500,10z M764.1,704.9c10.3,10.3,10.3,27,0,37.3c-10.3,10.3-27,10.3-37.3,0L521.2,536.5c0,0-199.8,201.5-207.7,209.4c-14,14-54.6-4.2-37.3-37.3c8.4-8.4,208.8-208.3,208.8-208.3l-205-205.1c-10.3-10.3-10.3-27,0-37.3c10.3-10.3,27-10.3,37.3,0L522.3,463c0,0,197-199.7,208.2-208.9c20.1-18.6,57.6,12.7,36.6,38c-6.6,9.9-207.7,207.9-207.7,207.9L764.1,704.9z"/></g>
</svg>
