<?xml version="1.0" standalone="no"?>
<svg version="1.0" xmlns="http://www.w3.org/2000/svg" viewBox="0 0 512 512">
<g transform="translate(0,512) scale(0.1,-0.1)"
fill="#000000" stroke="none">
<path d="M3408 5075 c-55 -20 -104 -57 -142 -106 -120 -155 -67 -383 110 -470
47 -23 58 -24 339 -30 160 -3 292 -6 295 -7 2 -1 -237 -244 -532 -539 -606
-608 -592 -591 -592 -728 -1 -104 26 -167 99 -234 66 -60 139 -85 228 -79 119
7 114 3 703 590 297 296 543 535 547 532 4 -4 7 -130 7 -281 0 -306 5 -333 73
-416 54 -67 125 -100 223 -105 71 -4 89 -1 136 20 71 33 118 75 154 140 l29
53 3 711 c2 702 2 713 -19 768 -28 77 -97 146 -172 174 -57 22 -65 22 -755 21
-562 0 -704 -3 -734 -14z"/>
<path d="M1780 2189 c-34 -15 -171 -146 -576 -551 -315 -314 -536 -528 -543
-524 -8 5 -11 89 -11 276 0 302 -5 330 -73 413 -54 67 -125 100 -223 105 -71
4 -89 1 -136 -20 -71 -33 -118 -75 -154 -140 l-29 -53 -3 -719 -3 -718 24 -52
c35 -75 80 -121 155 -158 l67 -33 650 -3 c393 -2 675 1 713 7 117 18 205 81
254 180 33 66 33 197 0 263 -49 99 -138 162 -254 179 -35 5 -168 9 -295 9
-128 0 -233 3 -233 7 0 4 240 248 534 543 597 599 571 567 571 710 -1 122 -58
215 -167 269 -53 27 -72 31 -142 31 -59 0 -93 -6 -126 -21z"/>
</g>
</svg>
