<svg xmlns="http://www.w3.org/2000/svg" viewBox="0 0 24 24">
  <path d="M20.495,2.531 C21.084,2.531 21.562,3.009 21.562,3.599 L21.562,7.87 C21.562,8.46 21.084,8.938 20.495,8.938 C19.905,8.938 19.427,8.46 19.427,7.87 L19.427,4.667 L16.224,4.667 C15.634,4.667 15.156,4.189 15.156,3.599 C15.156,3.009 15.634,2.531 16.224,2.531 L20.495,2.531 z" fill="#000000"/>
  <path d="M19.302,3.54 C20.146,3.573 19.822,3.434 20.332,3.78 C20.701,4.149 20.724,4.741 20.385,5.137 L15.384,10.137 C15.2,10.326 14.948,10.434 14.685,10.437 C14.278,10.44 13.911,10.196 13.755,9.821 C13.599,9.446 13.686,9.014 13.975,8.727 L18.974,3.727 L19.302,3.54 z" fill="#000000"/>
  <path d="M3.934,21.687 C3.344,21.687 2.866,21.209 2.866,20.619 L2.866,16.349 C2.866,15.759 3.344,15.281 3.934,15.281 C4.524,15.281 5.002,15.759 5.002,16.349 L5.002,19.552 L8.205,19.552 C8.794,19.552 9.272,20.03 9.272,20.62 C9.272,21.21 8.794,21.688 8.204,21.688 L3.934,21.687 z" fill="#000000"/>
  <path d="M5.126,20.678 C4.283,20.646 4.607,20.785 4.096,20.439 C3.727,20.069 3.704,19.478 4.044,19.081 L9.045,14.081 C9.229,13.893 9.481,13.785 9.744,13.781 C10.151,13.779 10.518,14.023 10.674,14.398 C10.83,14.773 10.743,15.205 10.454,15.491 L5.454,20.491 L5.126,20.678 z" fill="#000000"/>
  <path d="M2.845,3.599 C2.845,3.009 3.323,2.531 3.913,2.531 L8.183,2.532 C8.773,2.532 9.251,3.01 9.251,3.6 C9.251,4.189 8.773,4.667 8.183,4.667 L4.98,4.667 L4.98,7.87 C4.98,8.46 4.501,8.938 3.912,8.937 C3.322,8.937 2.844,8.459 2.844,7.87 L2.845,3.599 z" fill="#000000"/>
  <path d="M3.854,4.792 C3.886,3.948 3.747,4.272 4.093,3.762 C4.463,3.392 5.054,3.37 5.451,3.709 L10.45,8.71 C10.639,8.895 10.746,9.146 10.75,9.41 C10.753,9.816 10.509,10.184 10.134,10.339 C9.758,10.495 9.326,10.408 9.04,10.12 L4.041,5.119 L3.854,4.792 z" fill="#000000"/>
  <path d="M21.582,20.62 C21.582,21.21 21.104,21.688 20.514,21.688 L16.243,21.686 C15.654,21.685 15.176,21.207 15.176,20.617 C15.176,20.028 15.655,19.55 16.244,19.55 L19.447,19.552 L19.449,16.348 C19.449,15.759 19.927,15.281 20.517,15.281 C21.107,15.282 21.584,15.76 21.584,16.349 L21.582,20.62 z" fill="#000000"/>
  <path d="M20.574,19.427 C20.541,20.271 20.68,19.947 20.334,20.457 C19.964,20.826 19.373,20.849 18.976,20.509 L13.978,15.507 C13.79,15.322 13.682,15.07 13.679,14.807 C13.677,14.4 13.92,14.033 14.296,13.877 C14.671,13.722 15.103,13.809 15.389,14.097 L20.387,19.099 L20.574,19.427 z" fill="#000000"/>
</svg>
