<?xml version="1.0" standalone="no"?>
<svg version="1.0" xmlns="http://www.w3.org/2000/svg" viewBox="0 0 256 256">

<g transform="translate(0,256) scale(0.1,-0.1)"
fill="#000000" stroke="none">
<path d="M1033 2337 c-209 -209 -223 -225 -223 -259 0 -44 36 -78 83 -78 25 0
52 22 171 140 77 77 142 140 143 140 2 0 3 -328 3 -729 l0 -730 26 -20 c34
-27 64 -27 98 0 l26 20 0 730 c0 401 1 729 3 729 1 0 66 -63 143 -140 119
-118 146 -140 171 -140 47 0 83 34 83 78 0 34 -14 50 -223 259 -189 190 -227
223 -252 223 -25 0 -63 -33 -252 -223z"/>
<path d="M324 1584 c-52 -19 -111 -74 -135 -128 -17 -38 -19 -79 -19 -654 0
-675 -2 -653 63 -720 18 -19 50 -43 72 -55 l40 -22 940 0 940 0 40 22 c22 12
54 36 72 55 65 67 63 45 63 720 0 688 3 655 -75 731 -64 62 -94 67 -396 67
-266 0 -268 0 -295 -23 -37 -33 -37 -81 0 -114 27 -23 29 -23 292 -23 l265 0
24 -25 25 -24 0 -589 c0 -566 -1 -591 -19 -613 l-19 -24 -917 0 -917 0 -19 24
c-18 22 -19 47 -19 613 l0 589 25 24 24 25 265 0 c263 0 265 0 292 23 37 33
37 81 0 114 -27 23 -28 23 -299 22 -212 0 -281 -4 -313 -15z"/>
</g>
</svg>
