<?xml version="1.0" encoding="utf-8"?>
<svg version="1.1" xmlns="http://www.w3.org/2000/svg" xmlns:xlink="http://www.w3.org/1999/xlink" x="0px" y="0px" viewBox="0 0 1000 1000" enable-background="new 0 0 1000 1000" xml:space="preserve">
<g><path d="M500,10C229.4,10,10,229.4,10,500s219.4,490,490,490c270.6,0,490-219.4,490-490S770.6,10,500,10z M499.8,212.8c28.1,0,50.8,22.7,50.8,50.8c0,28.1-22.8,50.8-50.8,50.8c-28.1,0-50.8-22.8-50.8-50.8C449,235.5,471.8,212.8,499.8,212.8z M584.5,787.2h-169v-67.6h33.8V415.5h-33.8v-67.6h135.2v33.8v33.8v304.1h33.8V787.2z"/></g>
</svg>
