<svg version="1.1" xmlns="http://www.w3.org/2000/svg" viewBox="0, 0, 58, 58">
  <path d="M29.452,4.515 L29.452,33.765" fill-opacity="0" stroke="#000000" stroke-width="4" stroke-linecap="round"/>
  <path d="M21.253,28.429 L29.491,34.765" fill-opacity="0" stroke="#000000" stroke-width="4" stroke-linecap="round"/>
  <path d="M29.491,34.765 L38.02,28.429" fill-opacity="0" stroke="#000000" stroke-width="4" stroke-linecap="round"/>
  <path d="M48.677,33.856 C50.758,34.909 49.867,34.444 51.359,35.234 C56.232,37.859 55.984,37.984 51.232,41.109 C46.481,44.234 39.361,48.984 34.359,52.109 C29.357,55.234 28.984,55.234 24.607,52.359 C20.231,49.484 11.861,43.984 7.359,40.984 C2.857,37.984 2.859,37.734 7.482,35.359 C8.498,34.835 9.51,34.302 10.519,33.765" fill-opacity="0" stroke="#000000" stroke-width="4" stroke-linecap="round" stroke-linejoin="round"/>
  <path d="M37.906,18.449 C42.339,20.847 47.001,22.781 51.454,25.14 C56.327,27.765 56.079,27.89 51.327,31.015 C46.576,34.14 39.456,38.89 34.454,42.015 C29.452,45.14 29.079,45.14 24.702,42.265 C20.326,39.39 11.956,33.89 7.454,30.89 C2.952,27.89 2.954,27.64 7.577,25.265 C12.009,22.916 16.433,20.557 20.962,18.4" fill-opacity="0" stroke="#000000" stroke-width="4" stroke-linecap="round" stroke-linejoin="round"/>
</svg>
