<svg viewBox="0 0 18 18" xmlns="http://www.w3.org/2000/svg">
  <path id="svg_1" fill="#B8B1B1" d="m8.00016,14c0,0.9167 -0.75,1.6667 -1.66667,1.6667c-0.91666,0 -1.66666,-0.75 -1.66666,-1.6667c0,-0.9167 0.75,-1.6667 1.66666,-1.6667c0.91667,0 1.66667,0.75 1.66667,1.6667zm-1.66667,-6.66667c-0.91666,0 -1.66666,0.75 -1.66666,1.66666c0,0.91667 0.75,1.66667 1.66666,1.66667c0.91667,0 1.66667,-0.75 1.66667,-1.66667c0,-0.91666 -0.75,-1.66666 -1.66667,-1.66666zm0,-5c-0.91666,0 -1.66666,0.75 -1.66666,1.66666c0,0.91667 0.75,1.66667 1.66666,1.66667c0.91667,0 1.66667,-0.75 1.66667,-1.66667c0,-0.91666 -0.75,-1.66666 -1.66667,-1.66666zm5.00004,3.33333c0.9166,0 1.6666,-0.75 1.6666,-1.66667c0,-0.91666 -0.75,-1.66666 -1.6666,-1.66666c-0.9167,0 -1.6667,0.75 -1.6667,1.66666c0,0.91667 0.75,1.66667 1.6667,1.66667zm0,1.66667c-0.9167,0 -1.6667,0.75 -1.6667,1.66666c0,0.91667 0.75,1.66667 1.6667,1.66667c0.9166,0 1.6666,-0.75 1.6666,-1.66667c0,-0.91666 -0.75,-1.66666 -1.6666,-1.66666zm0,4.99997c-0.9167,0 -1.6667,0.75 -1.6667,1.6667c0,0.9167 0.75,1.6667 1.6667,1.6667c0.9166,0 1.6666,-0.75 1.6666,-1.6667c0,-0.9167 -0.75,-1.6667 -1.6666,-1.6667z"/>
</svg>
