<svg xmlns="http://www.w3.org/2000/svg" viewBox="0, 0, 64, 64">
  <g id="Layer_1">
    <path d="M52.731,4.129 C51.815,4.223 50.774,4.609 49.939,5.152 C49.565,5.395 45.733,9.201 30.062,24.889 C12.963,42.006 10.583,44.414 10.116,45.044 C9.131,46.385 8.807,46.984 7.679,49.535 C4.701,56.279 4.196,57.458 4.14,57.738 C3.909,58.986 5.056,60.134 6.302,59.897 C6.477,59.865 7.735,59.341 9.106,58.736 C16.004,55.686 16.696,55.374 17.462,54.925 C19.219,53.896 17.961,55.118 39.14,33.915 C56.251,16.786 58.625,14.391 58.881,13.966 C59.996,12.139 60.196,10.049 59.435,8.121 C58.575,5.926 56.525,4.379 54.151,4.123 C53.522,4.054 53.416,4.054 52.731,4.129 z M54.45,6.156 C54.7,6.206 55.167,6.381 55.491,6.543 C55.983,6.78 56.17,6.917 56.619,7.36 C57.061,7.809 57.198,7.997 57.435,8.489 C57.822,9.282 57.946,9.874 57.909,10.729 C57.884,11.215 57.828,9.937 57.709,11.889 C57.385,12.843 57.155,13.13 54.781,15.526 C53.578,16.742 52.519,17.784 52.432,17.846 L52.276,17.965 L49.129,14.815 L45.989,11.671 L48.294,9.369 C50.662,7.005 51.061,6.668 51.821,6.362 C52.6,6.057 53.622,5.975 54.45,6.156 z M50.755,19.524 C50.512,19.855 18.677,51.65 18.229,52.012 C17.219,52.817 16.26,53.409 15.144,53.914 C14.035,54.42 12.639,55.025 12.583,55.025 C12.552,55.025 11.73,54.226 10.757,53.253 C9.031,51.525 8.994,51.482 9.05,51.307 C9.087,51.207 9.399,50.484 9.748,49.704 C10.602,47.795 11.069,46.984 12.016,45.793 C12.222,45.537 19.637,38.07 28.491,29.199 L44.586,13.074 L47.727,16.218 L50.874,19.368 L50.755,19.524 z M9.38,54.682 C10.047,55.349 10.577,55.911 10.552,55.929 C10.508,55.973 6.533,57.738 6.333,57.801 C6.209,57.838 6.196,57.826 6.234,57.707 C6.327,57.42 8.09,53.465 8.128,53.465 C8.147,53.465 8.714,54.014 9.38,54.682 z" fill="#000000"/>
  </g>
</svg>
