<svg xmlns="http://www.w3.org/2000/svg" xmlns:xlink="http://www.w3.org/1999/xlink" viewBox="0 0 195 195">
  <defs>
    <style>
      .cls-2{isolation:isolate;}
      .cls-4{fill:#fdf49d;}
      .cls-5{fill:#f7d600;}
      .cls-6{fill:#ff5daa;}
      .cls-7{fill:#ff8911;}
      .cls-8{fill:#27e680;}
      .cls-9{fill:#976dfd;}
      .cls-10{fill:#6bdcff;}
      .cls-11{fill:#ffa54b;}
      .cls-12{fill:#60f7a6;}
      .cls-13{fill:#ffeb17;}
      .cls-14{fill:#93e5ff;}
      .cls-15{fill:#ff77b7;}
      .cls-16{fill:#ac8bfd;}
      .cls-17{fill:#a0f7c9;}
      .cls-18{fill:#bff0ff;}
      .cls-19{fill:#ffbd7a;}
      .cls-20{fill:#bda2fd;}
      .cls-21{fill:#ffa6dd;}
      .cls-23{fill:#262c35;}
    </style>
  </defs>
  <g class="cls-2">
    <path class="cls-4" d="M97.56.05A97.45,97.45,0,1,0,195,97.5,97.39,97.39,0,0,0,97.56.05ZM73.19,97.5a24.37,24.37,0,1,1,24.37,24.36A24.35,24.35,0,0,1,73.19,97.5Z"/>
    <path class="cls-5" d="M24.36,97.5H0a97.36,97.36,0,0,0,48.71,84.42L60.86,160.8A73,73,0,0,1,24.36,97.5Z"/>
    <path class="cls-6" d="M97.44,24.42a72.86,72.86,0,0,1,36.62,9.8l12.12-21.14a97.65,97.65,0,0,0-97.47,0L60.94,34.16a72.76,72.76,0,0,1,36.5-9.74Z"/>
    <path class="cls-7" d="M60.94,34.16,48.71,13.08A97.36,97.36,0,0,0,0,97.5H24.36A73,73,0,0,1,60.94,34.16Z"/>
    <path class="cls-8" d="M97.44,170.58a72.85,72.85,0,0,1-36.58-9.78L48.71,181.92a97.65,97.65,0,0,0,97.47,0L134,160.82a72.8,72.8,0,0,1-36.55,9.76Z"/>
    <path class="cls-9" d="M146.18,13.08,134.06,34.22A73,73,0,0,1,170.53,97.5h24.36a97.36,97.36,0,0,0-48.71-84.42Z"/>
    <path class="cls-10" d="M134,160.82l12.19,21.1A97.36,97.36,0,0,0,194.89,97.5H170.53A73,73,0,0,1,134,160.82Z"/>
    <path class="cls-11" d="M73.17,55.23,60.94,34.16A73,73,0,0,0,24.36,97.5H48.72A48.71,48.71,0,0,1,73.17,55.23Z"/>
    <path class="cls-12" d="M97.45,146.22A48.56,48.56,0,0,1,73,139.68L60.86,160.8a73.31,73.31,0,0,0,73.13,0l-12.18-21.11a48.57,48.57,0,0,1-24.36,6.51Z"/>
    <path class="cls-13" d="M48.72,97.5H24.36a73,73,0,0,0,36.5,63.3L73,139.67A48.66,48.66,0,0,1,48.72,97.5Z"/>
    <path class="cls-14" d="M121.81,139.71,134,160.82A73,73,0,0,0,170.53,97.5H146.17a48.67,48.67,0,0,1-24.36,42.21Z"/>
    <path class="cls-15" d="M60.94,34.16,73.17,55.23a48.89,48.89,0,0,1,48.77.13l12.12-21.14a73.29,73.29,0,0,0-73.12-.06Z"/>
    <path class="cls-16" d="M146.17,97.5h24.36a73,73,0,0,0-36.47-63.28L121.94,55.36A48.7,48.7,0,0,1,146.17,97.5Z"/>
    <path class="cls-17" d="M97.44,121.86a24.26,24.26,0,0,1-12.26-3.31L73,139.67a48.83,48.83,0,0,0,48.79,0l-12.2-21.1a24.29,24.29,0,0,1-12.17,3.25Z"/>
    <path class="cls-18" d="M109.61,118.61l12.2,21.1A48.67,48.67,0,0,0,146.17,97.5H121.81A24.35,24.35,0,0,1,109.61,118.61Z"/>
    <path class="cls-19" d="M48.72,97.5H73.08A24.35,24.35,0,0,1,85.41,76.32L73.17,55.23A48.69,48.69,0,0,0,48.72,97.5Z"/>
    <path class="cls-20" d="M121.81,97.5h24.36a48.7,48.7,0,0,0-24.23-42.14L109.81,76.51a24.32,24.32,0,0,1,12,21Z"/>
    <path class="cls-21" d="M97.45,73.14a24.22,24.22,0,0,1,12.36,3.37l12.13-21.15a48.89,48.89,0,0,0-48.77-.13L85.41,76.32A24.25,24.25,0,0,1,97.45,73.14Z"/>
    <path class="cls-23" d="M143.67,49.53C122.27,49.53,108,72,94.15,93.59c-12.73,19.92-25.88,40.52-43,40.52a38.45,38.45,0,1,1,0-76.89C68,57.22,78.3,71.45,81.39,76.44H58.94A4,4,0,0,0,55,79.71a3.85,3.85,0,0,0,3.81,4.42H89.68a3.86,3.86,0,0,0,3.86-3.84V49.65a3.94,3.94,0,0,0-3.28-3.92,3.86,3.86,0,0,0-4.44,3.8V69.18c-5.28-7.42-16.74-19.69-34.71-19.69a46.16,46.16,0,1,0,0,92.31c21.41,0,35.71-22.41,49.52-44.06,12.73-19.91,25.84-40.52,43-40.52a38.45,38.45,0,1,1,0,76.89c-20.59,0-31-16.64-31.39-17.33a3.85,3.85,0,0,0-6.6,4c.51.85,13,21.11,38,21.11a46.16,46.16,0,1,0,0-92.31Z"/>
  </g>
</svg>
