<svg xmlns="http://www.w3.org/2000/svg" xmlns:xlink="http://www.w3.org/1999/xlink" viewBox="0 0 512 512">
  <defs>
    <style>
      .cls-1{isolation:isolate;}
      .cls-2{fill:#fdf49d;}
      .cls-3{fill:#f7d600;}
      .cls-4{fill:#ff5daa;}
      .cls-5{fill:#ff8911;}
      .cls-6{fill:#27e680;}
      .cls-7{fill:#976dfd;}
      .cls-8{fill:#6bdcff;}
      .cls-9{fill:#ffa54b;}
      .cls-10{fill:#60f7a6;}
      .cls-11{fill:#ffeb17;}
      .cls-12{fill:#93e5ff;}
      .cls-13{fill:#ff77b7;}
      .cls-14{fill:#ac8bfd;}
      .cls-15{fill:#a0f7c9;}
      .cls-16{fill:#bff0ff;}
      .cls-17{fill:#ffbd7a;}
      .cls-18{fill:#bda2fd;}
      .cls-19{fill:#ffa6dd;}
      .cls-21{fill:#262c35;}
    </style>
  </defs>
  <g class="cls-1">
    <path class="cls-2" d="M256.14.14C114.72.14.29,114.58.29,256S114.72,511.86,256.14,511.86,512,397.42,512,256,397.56.14,256.14.14ZM192.18,256a64,64,0,1,1,64,64,63.92,63.92,0,0,1-64-64Z"/>
    <path class="cls-3" d="M64,256H0A255.62,255.62,0,0,0,127.89,477.65l31.91-55.46A191.72,191.72,0,0,1,64,256Z"/>
    <path class="cls-4" d="M255.86,64.11A191.07,191.07,0,0,1,352,89.86l31.83-55.51a256.44,256.44,0,0,0-255.93,0L160,89.69A191.13,191.13,0,0,1,255.86,64.11Z"/>
    <path class="cls-5" d="M160,89.69,127.89,34.35A255.62,255.62,0,0,0,0,256H64A191.72,191.72,0,0,1,160,89.69Z"/>
    <path class="cls-6" d="M255.86,447.89a191.1,191.1,0,0,1-96.06-25.7l-31.91,55.46a256.44,256.44,0,0,0,255.93,0l-32-55.41A191.05,191.05,0,0,1,255.86,447.89Z"/>
    <path class="cls-7" d="M383.82,34.35,352,89.86A191.71,191.71,0,0,1,447.75,256h64A255.62,255.62,0,0,0,383.82,34.35Z"/>
    <path class="cls-8" d="M351.82,422.24l32,55.41A255.62,255.62,0,0,0,511.71,256h-64A191.69,191.69,0,0,1,351.82,422.24Z"/>
    <path class="cls-9" d="M192.12,145,160,89.69A191.72,191.72,0,0,0,64,256h64A127.8,127.8,0,0,1,192.12,145Z"/>
    <path class="cls-10" d="M255.86,383.93a127.44,127.44,0,0,1-64.14-17.19L159.8,422.19a192.35,192.35,0,0,0,192,.05l-32-55.4a127.41,127.41,0,0,1-64,17.09Z"/>
    <path class="cls-11" d="M127.93,256H64A191.73,191.73,0,0,0,159.8,422.19l31.92-55.46A127.77,127.77,0,0,1,127.93,256Z"/>
    <path class="cls-12" d="M319.82,366.84l32,55.4A191.69,191.69,0,0,0,447.75,256h-64A127.82,127.82,0,0,1,319.82,366.84Z"/>
    <path class="cls-13" d="M160,89.69,192.12,145a128.2,128.2,0,0,1,128,.34L352,89.86a192.34,192.34,0,0,0-192-.17Z"/>
    <path class="cls-14" d="M383.78,256h64A191.71,191.71,0,0,0,352,89.86l-31.83,55.51A127.79,127.79,0,0,1,383.78,256Z"/>
    <path class="cls-15" d="M255.86,320a63.71,63.71,0,0,1-32.22-8.69l-31.92,55.46a128.21,128.21,0,0,0,128.1.11l-32-55.43A63.68,63.68,0,0,1,255.86,320Z"/>
    <path class="cls-16" d="M287.81,311.42l32,55.42a127.82,127.82,0,0,0,64-110.84h-64A63.89,63.89,0,0,1,287.81,311.42Z"/>
    <path class="cls-17" d="M127.93,256h64a63.9,63.9,0,0,1,32.36-55.62L192.12,145a127.8,127.8,0,0,0-64.19,111Z"/>
    <path class="cls-18" d="M319.82,256h64a127.79,127.79,0,0,0-63.62-110.63l-31.83,55.51A63.91,63.91,0,0,1,319.82,256Z"/>
    <path class="cls-19" d="M255.86,192a63.74,63.74,0,0,1,32.47,8.84l31.83-55.51a128.2,128.2,0,0,0-128-.34l32.13,55.35A63.76,63.76,0,0,1,255.86,192Z"/>
    <path class="cls-21" d="M369.31,216h-20V189.35a93.31,93.31,0,1,0-186.62,0V216h-20a6.66,6.66,0,0,0-6.67,6.66V389.31A26.69,26.69,0,0,0,162.69,416H349.32A26.69,26.69,0,0,0,376,389.31V222.67A6.66,6.66,0,0,0,369.31,216ZM276,355.24a6.67,6.67,0,0,1-6.63,7.41H242.67a6.67,6.67,0,0,1-6.63-7.41l4.21-37.81A26.35,26.35,0,0,1,229.34,296a26.66,26.66,0,0,1,53.32,0,26.35,26.35,0,0,1-10.91,21.44ZM309.32,216H202.68V189.35a53.32,53.32,0,1,1,106.64,0Z"/>
  </g>
</svg>
