<svg xmlns="http://www.w3.org/2000/svg" viewBox="0, 0, 64, 64">
  <path d="M46.238,15.452 C47.219,16.458 49.432,18.822 51.167,20.683 C52.877,22.544 55.065,24.908 56.046,25.914 C58.309,28.278 58.611,28.831 58.158,29.762 C57.957,30.139 56.146,32.176 54.134,34.314 C52.123,36.426 49.256,39.494 47.747,41.129 C46.263,42.764 44.829,44.197 44.578,44.323 C43.371,44.977 41.837,44.071 41.837,42.663 C41.837,41.934 42.113,41.506 43.673,39.846 C48.878,34.364 51.645,31.346 51.645,31.17 C51.645,31.069 43.421,31.019 33.336,31.044 L15.053,31.12 L13.922,31.698 C12.312,32.528 10.778,34.112 10.099,35.621 C9.294,37.457 9.294,40.45 10.099,42.11 C10.828,43.568 12.337,45.077 13.896,45.857 C15.028,46.461 15.179,46.461 24.434,46.586 L33.839,46.712 L34.317,47.316 C34.971,48.12 34.921,49.001 34.166,49.73 L33.563,50.359 L24.585,50.359 C14.601,50.359 13.821,50.258 11.18,48.724 C8.59,47.215 6.679,44.625 6.025,41.707 C4.491,35.169 7.936,29.284 14.299,27.574 C15.305,27.297 19.278,27.222 33.588,27.222 C43.522,27.222 51.645,27.146 51.645,27.071 C51.645,26.845 50.488,25.562 46.464,21.312 C42.063,16.634 41.837,16.357 41.837,15.427 C41.837,14.471 42.692,13.641 43.698,13.641 C44.276,13.641 44.804,14.019 46.238,15.452 z" fill="#000000"/>
</svg>
