<svg xmlns="http://www.w3.org/2000/svg" viewBox="0 0 24 24">
  <path d="M14.745,10.437 C14.156,10.436 13.678,9.958 13.678,9.369 L13.679,5.098 C13.679,4.508 14.157,4.03 14.747,4.03 C15.337,4.031 15.815,4.509 15.814,5.098 L15.814,8.302 L19.017,8.302 C19.606,8.303 20.084,8.781 20.084,9.37 C20.084,9.96 19.606,10.438 19.016,10.438 L14.745,10.437 z" fill="#000000"/>
  <path d="M15.938,9.428 C15.095,9.395 15.419,9.534 14.908,9.188 C14.539,8.819 14.516,8.227 14.856,7.83 L19.858,2.832 C20.042,2.643 20.294,2.536 20.558,2.532 C20.964,2.53 21.331,2.774 21.487,3.149 C21.643,3.524 21.556,3.956 21.267,4.242 L16.266,9.241 L15.938,9.428 z" fill="#000000"/>
  <path d="M9.683,13.782 C10.273,13.783 10.751,14.261 10.751,14.85 L10.75,19.121 C10.749,19.711 10.271,20.189 9.682,20.189 C9.092,20.188 8.614,19.71 8.614,19.121 L8.615,15.917 L5.412,15.916 C4.822,15.916 4.344,15.438 4.345,14.849 C4.345,14.259 4.823,13.781 5.413,13.781 L9.683,13.782 z" fill="#000000"/>
  <path d="M8.49,14.791 C9.334,14.824 9.01,14.684 9.52,15.031 C9.89,15.4 9.912,15.992 9.572,16.388 L4.571,21.387 C4.386,21.575 4.135,21.683 3.871,21.687 C3.465,21.689 3.097,21.445 2.942,21.07 C2.786,20.695 2.873,20.263 3.161,19.977 L8.163,14.978 L8.49,14.791 z" fill="#000000"/>
  <path d="M10.747,9.352 C10.746,9.942 10.267,10.419 9.678,10.419 L5.407,10.414 C4.817,10.413 4.34,9.934 4.34,9.345 C4.341,8.755 4.82,8.278 5.409,8.278 L8.613,8.282 L8.616,5.079 C8.617,4.489 9.096,4.012 9.685,4.012 C10.275,4.013 10.752,4.492 10.752,5.081 L10.747,9.352 z" fill="#000000"/>
  <path d="M9.739,8.158 C9.705,9.002 9.845,8.678 9.498,9.188 C9.128,9.557 8.537,9.579 8.141,9.239 L3.147,4.233 C2.958,4.048 2.851,3.797 2.847,3.533 C2.845,3.126 3.09,2.759 3.465,2.604 C3.84,2.449 4.272,2.536 4.558,2.825 L9.552,7.831 L9.739,8.158 z" fill="#000000"/>
  <path d="M13.686,14.862 C13.687,14.272 14.166,13.795 14.756,13.796 L19.026,13.806 C19.616,13.807 20.093,14.286 20.092,14.876 C20.091,15.465 19.611,15.942 19.022,15.941 L15.819,15.934 L15.812,19.137 C15.81,19.727 15.331,20.204 14.742,20.202 C14.152,20.201 13.675,19.722 13.676,19.132 L13.686,14.862 z" fill="#000000"/>
  <path d="M14.692,16.056 C14.727,15.213 14.586,15.536 14.934,15.027 C15.304,14.658 15.896,14.637 16.292,14.977 L21.28,19.988 C21.469,20.173 21.576,20.425 21.579,20.689 C21.58,21.095 21.336,21.462 20.96,21.617 C20.585,21.772 20.153,21.684 19.867,21.395 L14.878,16.384 L14.692,16.056 z" fill="#000000"/>
</svg>
