<svg xmlns="http://www.w3.org/2000/svg" viewBox="0 0 60 60">
  <path
      style="stroke-linejoin:round;stroke:#000;stroke-linecap:round;stroke-width:4.3453;"
      d="m38.71 12.795h9.736m-4.636 0v33.008m-5.1 0.893h9.968"
      transform="matrix(1.1507 0 0 1.1507 -1.8809 -3.8516)"
  />
  <path
      style="stroke-width:1pt;fill:#000"
      transform="scale(4.1328)"
      d="m1.3728 9.8525l1.875-5.0977c0.168-0.4492 0.3066-0.7812 0.416-0.9961 0.1094-0.2187 0.2598-0.4023 0.4512-0.5508 0.1914-0.1523 0.4414-0.2285 0.75-0.2285 0.3164 0 0.5723 0.0762 0.7676 0.2285 0.1992 0.1524 0.3554 0.3438 0.4687 0.5743 0.1172 0.2265 0.2539 0.5507 0.4102 0.9726l1.8691 5.0977c0.1172 0.3085 0.1934 0.5465 0.2285 0.7145 0.0391 0.164 0.0586 0.33 0.0586 0.498 0 0.243-0.0859 0.438-0.2578 0.586-0.168 0.145-0.3926 0.217-0.6738 0.217-0.1953 0-0.3594-0.039-0.4922-0.117s-0.2402-0.188-0.3223-0.328c-0.0781-0.141-0.1484-0.313-0.2109-0.516l-0.2344-0.767h-3.1933l-0.2403 0.767c-0.1015 0.317-0.2246 0.557-0.3691 0.721-0.1406 0.16-0.3574 0.24-0.6504 0.24-0.2774 0-0.5039-0.072-0.6797-0.217-0.1719-0.148-0.2578-0.343-0.2578-0.586 0-0.144 0.0156-0.295 0.0469-0.451 0.0351-0.16 0.1152-0.414 0.2402-0.7615zm4.5234-1.5352l-0.9726-3.1582h-0.0235l-1.0429 3.1582h2.039z"
  />
</svg>
