<svg version="1.1" xmlns="http://www.w3.org/2000/svg" viewBox="0, 0, 512, 512">
  <g>
    <path d="M180.4,1.9 C173.7,4.9 171.6,9 171.2,19 C169.7,55.8 199.9,92.5 238.2,100.4 C278.3,108.7 318.8,87.3 334.2,49.7 C336,45.5 337.8,42 338.3,42 C340.3,42 409.8,72.4 414.2,75.2 C420.7,79.3 429.3,88.8 432.4,95.4 C435.7,102.5 471,231.6 471,236.6 C471,243.5 467.5,247.9 458.5,252.6 C448.6,257.7 445.6,261.7 445.6,269.4 C445.6,275.7 448.5,280.9 453.7,284.1 C459.1,287.4 464.2,286.9 474.5,282 C494.4,272.5 506.2,252.9 504.7,232 C504.3,226.6 498.9,205.4 485.6,157 C475.5,119.9 466.2,87.3 465,84.6 C457,66.8 442.3,51.1 425.5,42.7 C422.8,41.4 400,31.3 375,20.4 L329.5,0.5 L257,0.3 C187.9,0 184.3,0.1 180.4,1.9 z M302.9,36.7 C297.9,50.1 284.4,61.9 269.1,66.4 C246.2,73.1 218.6,59.8 209.5,37.7 L208,34 L256,34 L304,34 L302.9,36.7 z" fill="#000000"/>
    <path d="M100,35.4 C92,38.8 82.8,43.3 79.5,45.4 C71.9,50.3 62,59.8 56.4,67.6 C47.9,79.4 45.9,85.5 26.4,156.5 C6.5,229.1 5.5,234.3 8,246.3 C10.5,258.7 19.1,271.6 29.3,278.3 C32.2,280.2 49.6,288.1 68,295.8 L101.5,309.7 L102,390.1 C102.5,453.1 102.9,471.4 103.9,474.5 C109.4,491.2 120.9,503.2 137,509.1 L143.5,511.5 L256,511.5 L368.5,511.5 L375,509.1 C390.8,503.3 401.9,491.9 407.3,476.1 L409.5,469.5 L409.8,357.7 C410,281.3 409.7,244.7 409,242 C406.9,234.1 400.4,229 392.5,229 C384.7,229 378.1,234 376.1,241.5 C375.3,244.3 375,279.4 375,355.3 C375,478.4 375.5,469.6 367.7,474.8 L363.6,477.5 L257.2,477.8 C154.1,478 150.7,478 146.5,476.1 C143.6,474.8 141.2,472.7 139.3,469.9 L136.5,465.6 L136.3,353.1 C136.1,291.2 135.8,239.6 135.5,238.4 C134.7,235 131.1,231.1 126.7,228.9 C118.8,224.8 108.7,228.2 104.3,236.3 C102.9,238.8 102.4,243 102,256.1 L101.5,272.7 L76,262.1 C62,256.2 49.3,250.6 47.9,249.7 C44.4,247.4 41,241 41,236.7 C41,231.8 76.4,102.2 79.5,95.5 C82.5,89.2 90.3,80.3 96.5,76 C98.8,74.4 106.9,70.4 114.5,67.1 C129.8,60.4 134.2,57.1 136,50.6 C138.2,42.8 133.7,33.4 126.3,30.4 C120.3,27.8 115.4,28.8 100,35.4 z" fill="#000000"/>
  </g>
  <path d="M243.367,208.295 C250.395,201.286 261.771,201.299 268.78,208.325 L319.54,259.206 C326.551,266.231 326.538,277.608 319.512,284.617 C312.487,291.625 301.11,291.612 294.101,284.587 L256.028,246.426 L217.867,284.498 C210.844,291.506 199.467,291.493 192.458,284.467 C185.449,277.442 185.463,266.065 192.488,259.057 L243.367,208.295 z" fill="#000000"/>
  <path d="M241.152,234.492 C251.59,224.855 246.076,227.044 256.271,225.105 C265.063,225.114 272.365,231.889 273.032,240.654 L272.89,359.652 C272.932,364.091 271.217,368.366 268.119,371.546 C263.307,376.402 256.035,377.865 249.719,375.247 C243.403,372.628 239.299,366.449 239.335,359.612 L239.473,240.615 L241.152,234.492 z" fill="#000000"/>
</svg>
