<svg version="1.0" xmlns="http://www.w3.org/2000/svg" viewBox="0 0 512 512">

<g transform="translate(0,512) scale(0.1,-0.1)"
fill="#000000" stroke="none">
<path d="M2488 5070 c-319 -67 -354 -86 -460 -249 -27 -42 -89 -139 -139 -216
-168 -259 -180 -280 -195 -333 -29 -98 5 -210 87 -287 63 -59 90 -69 134 -51
68 29 74 89 14 149 -107 107 -110 96 146 487 34 52 79 122 100 155 70 111 97
123 394 180 90 17 100 14 101 -30 1 -32 44 -128 81 -179 166 -232 535 -235
707 -5 20 27 40 49 44 49 7 0 28 -15 219 -155 45 -33 88 -70 96 -82 15 -22 45
-162 108 -509 33 -179 36 -205 24 -230 -19 -38 -60 -60 -149 -80 -112 -25
-140 -28 -140 -14 0 6 11 66 25 132 31 148 31 160 1 194 -31 37 -86 39 -121 4
-24 -26 -36 -77 -165 -720 -23 -113 -47 -234 -55 -270 -8 -36 -29 -132 -45
-215 -40 -195 -37 -185 -68 -185 -15 0 -124 21 -242 46 -118 25 -368 76 -555
114 -417 85 -382 77 -389 95 -3 8 13 104 35 213 22 108 78 382 124 607 46 226
88 430 94 455 26 110 1 170 -69 170 -21 0 -47 -8 -59 -18 -23 -18 -22 -16
-166 -712 -24 -118 -63 -305 -86 -415 -64 -309 -63 -350 10 -428 50 -54 17
-46 696 -186 679 -141 642 -136 724 -83 63 40 83 94 135 352 89 444 128 625
138 638 6 6 16 12 24 12 40 0 315 75 350 95 84 49 133 134 134 228 0 32 -14
131 -31 220 -17 89 -45 243 -64 343 -33 181 -54 244 -98 285 -12 11 -103 80
-202 152 -172 125 -182 131 -235 135 -70 4 -108 -18 -151 -88 -68 -110 -171
-162 -285 -143 -73 13 -134 49 -174 105 -32 43 -60 123 -60 168 0 37 -39 92
-80 112 -48 24 -101 22 -262 -12z"/>
<path d="M87 4166 c-51 -19 -65 -33 -73 -71 -8 -45 13 -86 56 -107 30 -15 65
-18 247 -18 168 0 222 -3 259 -16 65 -22 118 -59 148 -102 25 -37 234 -590
620 -1641 l116 -314 -31 -66 c-17 -36 -38 -99 -47 -139 -40 -184 54 -374 242
-486 117 -70 77 -68 1329 -70 1065 -1 1123 0 1148 17 77 52 55 150 -38 176
-26 7 -384 11 -1102 11 -736 0 -1084 3 -1128 11 -144 25 -252 161 -228 286 10
53 45 122 69 138 13 8 114 21 266 34 261 23 343 30 675 61 116 10 311 28 435
40 124 11 299 27 390 35 91 9 244 22 340 30 303 25 387 45 507 121 79 50 168
146 202 217 50 104 311 1063 311 1141 0 34 -46 81 -90 89 -67 14 -133 -23
-145 -80 -13 -61 -170 -679 -217 -848 -27 -99 -58 -199 -69 -222 -25 -51 -91
-114 -156 -146 -79 -40 -64 -38 -888 -112 -154 -14 -379 -34 -500 -45 -1163
-106 -1059 -99 -1078 -69 -9 13 -31 69 -50 124 -35 99 -207 565 -374 1010 -47
127 -107 291 -133 365 -78 225 -138 378 -163 417 -34 54 -140 149 -198 178
-95 49 -149 57 -389 61 -176 3 -233 1 -263 -10z"/>
<path d="M1425 888 c-68 -13 -180 -68 -236 -117 -155 -135 -195 -354 -96 -523
34 -58 132 -150 193 -181 80 -41 162 -60 249 -61 148 0 260 43 364 140 188
173 185 438 -5 613 -128 117 -293 163 -469 129z m241 -222 c87 -40 144 -126
144 -216 0 -158 -159 -271 -331 -235 -70 14 -107 35 -151 83 -51 56 -74 131
-60 194 15 61 53 119 102 153 51 35 81 43 170 44 59 1 86 -4 126 -23z"/>
<path d="M3501 874 c-113 -30 -244 -128 -296 -221 -119 -213 -36 -470 191
-590 261 -139 597 -39 717 214 29 62 32 76 32 168 0 92 -3 105 -33 169 -60
127 -200 236 -340 265 -73 15 -206 13 -271 -5z m264 -208 c114 -53 160 -123
153 -235 -3 -58 -8 -74 -39 -117 -112 -156 -374 -146 -468 18 -37 64 -42 148
-12 214 22 49 89 108 145 128 66 23 162 20 221 -8z"/>
</g>
</svg>
