<?xml version="1.0" encoding="utf-8"?>
<svg version="1.1" xmlns="http://www.w3.org/2000/svg" xmlns:xlink="http://www.w3.org/1999/xlink" x="0px" y="0px" viewBox="0 0 1000 1000" enable-background="new 0 0 1000 1000" xml:space="preserve">
<g><path d="M500,10C229.3,10,10,229.4,10,500c0,270.6,219.4,490,490,490c270.6,0,490-219.4,490-490C990,229.4,770.7,10,500,10z M826.3,327.6l-392,399.2L187.7,475.7c-15.8-16.1-15.8-42.1,0-58.1c15.8-16.1,41.3-16.1,57.1,0l189.5,193l334.8-341.1c15.8-16.1,41.3-16.1,57.1,0C842,285.6,842,311.6,826.3,327.6z"/></g>
</svg>
