<svg xmlns="http://www.w3.org/2000/svg" viewBox="0 0 400 400">
<g transform="translate(0,400) scale(0.1,-0.1)"
fill="#000000" stroke="none">
<path d="M449 3066 c-87 -31 -164 -102 -203 -185 -21 -46 -21 -49 -21 -886 l0
-840 23 -46 c34 -70 84 -122 154 -160 l63 -34 1535 0 1535 0 50 25 c64 31 134
101 165 165 l25 50 0 840 0 840 -28 56 c-30 63 -92 125 -159 161 l-43 23
-1530 2 c-1234 2 -1537 0 -1566 -11z m3048 -236 c22 -13 35 -31 43 -59 7 -27
10 -281 8 -800 l-3 -761 -33 -32 -32 -33 -1474 0 c-1195 0 -1478 2 -1497 13
-56 30 -54 -5 -57 817 -2 535 0 771 8 798 7 25 22 45 43 57 31 20 63 20 1497
20 1435 0 1466 0 1497 -20z"/>
<path d="M1834 2549 c-208 -71 -330 -312 -310 -609 13 -185 65 -309 172 -409
74 -69 145 -100 249 -108 133 -10 249 37 341 140 84 93 128 216 140 385 18
266 -88 493 -273 584 -59 29 -77 33 -162 35 -77 3 -108 -1 -157 -18z m209
-193 c107 -46 166 -201 154 -405 -10 -183 -83 -306 -194 -327 -86 -16 -181 52
-224 161 -21 53 -23 77 -24 205 0 158 12 216 62 291 51 78 147 109 226 75z"/>
<path d="M2809 2555 c-100 -32 -194 -123 -219 -213 -5 -20 -10 -62 -10 -93 0
-147 68 -235 248 -320 164 -77 172 -82 204 -118 26 -30 30 -40 25 -78 -6 -55
-37 -89 -91 -104 -77 -21 -193 14 -269 80 -20 18 -41 29 -47 26 -17 -11 -100
-143 -100 -159 0 -42 157 -129 264 -147 211 -36 399 48 452 201 28 83 25 190
-8 262 -41 88 -101 138 -262 217 -78 38 -152 80 -165 95 -44 48 -26 122 37
152 66 31 193 2 259 -58 12 -11 29 -18 37 -15 18 7 95 126 96 148 0 25 -50 65
-124 100 -63 29 -81 33 -175 36 -74 2 -120 -2 -152 -12z"/>
<path d="M714 2537 c-3 -8 -4 -49 -2 -93 l3 -79 122 -3 123 -3 2 -457 3 -457
105 0 105 0 5 455 5 455 120 5 120 5 0 90 0 90 -353 3 c-289 2 -353 0 -358
-11z"/>
</g>
</svg>
