<svg xmlns="http://www.w3.org/2000/svg" viewBox="0, 0, 64, 64">
  <path d="M17.762,15.452 C16.781,16.458 14.568,18.822 12.833,20.683 C11.123,22.544 8.935,24.908 7.954,25.914 C5.691,28.278 5.389,28.831 5.842,29.762 C6.043,30.139 7.854,32.176 9.866,34.314 C11.877,36.426 14.744,39.494 16.253,41.129 C17.737,42.764 19.171,44.197 19.422,44.323 C20.629,44.977 22.163,44.071 22.163,42.663 C22.163,41.934 21.887,41.506 20.327,39.846 C15.122,34.364 12.355,31.346 12.355,31.17 C12.355,31.069 20.579,31.019 30.664,31.044 L48.947,31.12 L50.078,31.698 C51.688,32.528 53.222,34.112 53.901,35.621 C54.706,37.457 54.706,40.45 53.901,42.11 C53.172,43.568 51.663,45.077 50.104,45.857 C48.972,46.461 48.821,46.461 39.566,46.586 L30.161,46.712 L29.683,47.316 C29.029,48.12 29.079,49.001 29.834,49.73 L30.437,50.359 L39.415,50.359 C49.399,50.359 50.179,50.258 52.82,48.724 C55.41,47.215 57.321,44.625 57.975,41.707 C59.509,35.169 56.064,29.284 49.701,27.574 C48.695,27.297 44.722,27.222 30.412,27.222 C20.478,27.222 12.355,27.146 12.355,27.071 C12.355,26.845 13.512,25.562 17.536,21.312 C21.937,16.634 22.163,16.357 22.163,15.427 C22.163,14.471 21.308,13.641 20.302,13.641 C19.724,13.641 19.196,14.019 17.762,15.452 z" fill="#000000"/>
</svg>
