<?xml version="1.0" standalone="no"?>
<svg version="1.0" xmlns="http://www.w3.org/2000/svg" viewBox="0 0 512 512">
  <g transform="translate(0,512) scale(0.1,-0.1)" fill="#000000" stroke="none">
    <path d="M2317 4289 c-805 -71 -1543 -500 -2009 -1165 -126 -181 -298 -507
    -298 -566 0 -40 170 -371 258 -503 118 -175 199 -273 356 -431 424 -423 939
    -682 1541 -776 114 -17 185 -21 385 -22 260 -1 352 8 560 50 421 86 819 272
    1159 542 118 92 343 317 435 432 37 47 103 139 148 205 90 135 258 463 258
    505 0 41 -168 370 -258 505 -107 160 -193 266 -332 409 -457 470 -1070 760
    -1725 816 -135 11 -347 11 -478 -1z m390 -580 c209 -28 422 -118 584 -249 157
    -126 299 -325 361 -506 169 -492 13 -1012 -398 -1323 -91 -69 -267 -156 -379
    -186 -280 -77 -572 -49 -830 79 -399 198 -645 593 -645 1036 0 366 170 705
    468 931 81 62 283 162 372 185 161 41 322 53 467 33z"/>
    <path d="M2445 3245 c-154 -28 -277 -94 -385 -204 -109 -112 -169 -237 -192
    -401 -43 -305 153 -621 452 -731 161 -58 319 -58 480 0 304 111 495 424 451
    738 -44 317 -279 552 -601 603 -81 12 -117 12 -205 -5z"/>
  </g>
</svg>
