<?xml version="1.0" encoding="utf-8"?>
<svg version="1.1" xmlns="http://www.w3.org/2000/svg" xmlns:xlink="http://www.w3.org/1999/xlink" x="0px" y="0px" viewBox="0 0 1000 1000" enable-background="new 0 0 1000 1000" xml:space="preserve">
<g><path d="M500,10C229.4,10,10,229.4,10,500c0,270.6,219.4,490,490,490s490-219.4,490-490C990,229.4,770.6,10,500,10z M500,780.4c-35,0-63.4-28.4-63.4-63.4c0-35,28.4-63.4,63.4-63.4c35,0,63.4,28.4,63.4,63.4C563.4,752,535,780.4,500,780.4z M538,563.2c0,16.6-13.5,34.5-30.1,34.5h-15.8c-16.6,0-30.1-17.8-30.1-34.5l-25.3-303c0-16.6,13.5-36.2,30.1-36.2h66.4c16.6,0,30.1,19.5,30.1,36.2L538,563.2z"/></g>
</svg>
